<?xml version="1.0" encoding="UTF-8" standalone="no"?>
<!-- Generator: Adobe Illustrator 16.0.4, SVG Export Plug-In . SVG Version: 6.00 Build 0)  -->

<svg
   xmlns:dc="http://purl.org/dc/elements/1.1/"
   xmlns:cc="http://creativecommons.org/ns#"
   xmlns:rdf="http://www.w3.org/1999/02/22-rdf-syntax-ns#"
   xmlns:svg="http://www.w3.org/2000/svg"
   xmlns="http://www.w3.org/2000/svg"
   xmlns:sodipodi="http://sodipodi.sourceforge.net/DTD/sodipodi-0.dtd"
   xmlns:inkscape="http://www.inkscape.org/namespaces/inkscape"
   version="1.1"
   id="Layer_2"
   x="0px"
   y="0px"
   width="163.69"
   height="173.57001"
   viewBox="0 0 163.69 173.57001"
   enable-background="new 0 0 578 202"
   xml:space="preserve"
   inkscape:version="0.48.3.1 r9886"
   sodipodi:docname="logo_w_text.svg"><metadata
   id="metadata3213"><rdf:RDF><cc:Work
       rdf:about=""><dc:format>image/svg+xml</dc:format><dc:type
         rdf:resource="http://purl.org/dc/dcmitype/StillImage" /><dc:title /></cc:Work></rdf:RDF></metadata><defs
   id="defs3211"><clipPath
     clipPathUnits="userSpaceOnUse"
     id="clipPath3219"><rect
       style="fill:none;stroke:#664444;stroke-width:1;stroke-linecap:round;stroke-linejoin:round;stroke-miterlimit:4;stroke-opacity:1;stroke-dasharray:none;stroke-dashoffset:0"
       id="rect3221"
       width="163.23344"
       height="121.52046"
       x="29.502085"
       y="46.461803"
       ry="0" /></clipPath><clipPath
     clipPathUnits="userSpaceOnUse"
     id="clipPath3223"><rect
       style="fill:none;stroke:#664444;stroke-width:1;stroke-linecap:round;stroke-linejoin:round;stroke-miterlimit:4;stroke-opacity:1;stroke-dasharray:none;stroke-dashoffset:0"
       id="rect3225"
       width="163.23344"
       height="121.52046"
       x="29.502085"
       y="46.461803"
       ry="0" /></clipPath><clipPath
     clipPathUnits="userSpaceOnUse"
     id="clipPath3227"><rect
       style="fill:none;stroke:#664444;stroke-width:1;stroke-linecap:round;stroke-linejoin:round;stroke-miterlimit:4;stroke-opacity:1;stroke-dasharray:none;stroke-dashoffset:0"
       id="rect3229"
       width="163.23344"
       height="121.52046"
       x="29.502085"
       y="46.461803"
       ry="0" /></clipPath><clipPath
     clipPathUnits="userSpaceOnUse"
     id="clipPath3231"><rect
       style="fill:none;stroke:#664444;stroke-width:1;stroke-linecap:round;stroke-linejoin:round;stroke-miterlimit:4;stroke-opacity:1;stroke-dasharray:none;stroke-dashoffset:0"
       id="rect3233"
       width="163.23344"
       height="121.52046"
       x="29.502085"
       y="46.461803"
       ry="0" /></clipPath><clipPath
     clipPathUnits="userSpaceOnUse"
     id="clipPath3235"><rect
       style="fill:none;stroke:#664444;stroke-width:1;stroke-linecap:round;stroke-linejoin:round;stroke-miterlimit:4;stroke-opacity:1;stroke-dasharray:none;stroke-dashoffset:0"
       id="rect3237"
       width="163.23344"
       height="121.52046"
       x="29.502085"
       y="46.461803"
       ry="0" /></clipPath><clipPath
     clipPathUnits="userSpaceOnUse"
     id="clipPath3239"><rect
       style="fill:none;stroke:#664444;stroke-width:1;stroke-linecap:round;stroke-linejoin:round;stroke-miterlimit:4;stroke-opacity:1;stroke-dasharray:none;stroke-dashoffset:0"
       id="rect3241"
       width="163.23344"
       height="121.52046"
       x="29.502085"
       y="46.461803"
       ry="0" /></clipPath><clipPath
     clipPathUnits="userSpaceOnUse"
     id="clipPath3243"><rect
       style="fill:none;stroke:#664444;stroke-width:1;stroke-linecap:round;stroke-linejoin:round;stroke-miterlimit:4;stroke-opacity:1;stroke-dasharray:none;stroke-dashoffset:0"
       id="rect3245"
       width="163.23344"
       height="121.52046"
       x="29.502085"
       y="46.461803"
       ry="0" /></clipPath><clipPath
     clipPathUnits="userSpaceOnUse"
     id="clipPath3247"><rect
       style="fill:none;stroke:#664444;stroke-width:1;stroke-linecap:round;stroke-linejoin:round;stroke-miterlimit:4;stroke-opacity:1;stroke-dasharray:none;stroke-dashoffset:0"
       id="rect3249"
       width="163.23344"
       height="121.52046"
       x="29.502085"
       y="46.461803"
       ry="0" /></clipPath><clipPath
     clipPathUnits="userSpaceOnUse"
     id="clipPath3251"><rect
       style="fill:none;stroke:#664444;stroke-width:1;stroke-linecap:round;stroke-linejoin:round;stroke-miterlimit:4;stroke-opacity:1;stroke-dasharray:none;stroke-dashoffset:0"
       id="rect3253"
       width="163.23344"
       height="121.52046"
       x="29.502085"
       y="46.461803"
       ry="0" /></clipPath></defs><sodipodi:namedview
   pagecolor="#ffffff"
   bordercolor="#666666"
   borderopacity="1"
   objecttolerance="10"
   gridtolerance="10"
   guidetolerance="10"
   inkscape:pageopacity="0"
   inkscape:pageshadow="2"
   inkscape:window-width="1916"
   inkscape:window-height="1161"
   id="namedview3209"
   showgrid="false"
   inkscape:zoom="2.8284271"
   inkscape:cx="82.378964"
   inkscape:cy="69.180834"
   inkscape:window-x="0"
   inkscape:window-y="37"
   inkscape:window-maximized="0"
   inkscape:current-layer="Layer_2"
   fit-margin-top="0"
   fit-margin-left="0"
   fit-margin-right="0"
   fit-margin-bottom="0" />
<path
   d="m 171.406,106.573 c 0.135,-1.172 0.208,-2.364 0.208,-3.573 0,-16.985 -13.77,-30.755 -30.755,-30.755 -16.987,0 -30.757,13.77 -30.757,30.755 0,7.968 3.031,15.229 8.002,20.692 -4.207,-0.048 -8.768,-0.397 -13.591,-1.201 -2.542,-0.424 -9.457,-2.39 -16.772,-4.575 4.957,-3.646 8.174,-9.517 8.174,-16.142 0,-11.059 -8.965,-20.025 -20.026,-20.025 -11.061,0 -20.026,8.966 -20.026,20.025 0,3.015 0.67,5.872 1.863,8.437 -15.28,0.449 -27.53,12.976 -27.53,28.365 0,15.574 12.546,28.217 28.083,28.374 l 0.034,0.076 h 101.272 c 0.372,0.014 0.745,0.021 1.119,0.021 17.221,0 31.18,-13.96 31.18,-31.181 0,-13.459 -8.53,-24.927 -20.478,-29.293 z"
   id="path3120"
   clip-path="url(#clipPath3251)"
   inkscape:connector-curvature="0"
   style="fill:#e5e5e5;fill-opacity:1"
   transform="translate(-28.896002,-45.477466)" />
<path
   d="m 170.694,106.473 c 0.134,-1.161 0.205,-2.341 0.205,-3.537 0,-16.813 -13.63,-30.444 -30.445,-30.444 -16.815,0 -30.446,13.63 -30.446,30.444 0,7.888 3,15.075 7.921,20.482 -4.164,-0.048 -8.679,-0.393 -13.453,-1.189 -2.517,-0.419 -9.361,-2.366 -16.602,-4.529 4.906,-3.608 8.092,-9.42 8.092,-15.978 0,-10.947 -8.875,-19.823 -19.825,-19.823 -10.949,0 -19.824,8.875 -19.824,19.823 0,2.985 0.663,5.812 1.845,8.352 -15.126,0.444 -27.252,12.845 -27.252,28.079 0,15.417 12.42,27.932 27.8,28.088 l 0.033,0.075 h 100.25 c 0.367,0.012 0.737,0.021 1.108,0.021 17.046,0 30.865,-13.819 30.865,-30.865 -0.001,-13.326 -8.444,-24.678 -20.272,-28.999 z"
   id="path3122"
   clip-path="url(#clipPath3247)"
   inkscape:connector-curvature="0"
   style="fill:#ffffff"
   transform="translate(-28.896002,-45.477466)" />
<linearGradient
   id="SVGID_1_"
   gradientUnits="userSpaceOnUse"
   x1="81.506798"
   y1="106.583"
   x2="72.857498"
   y2="105.1049">
	<stop
   offset="0"
   style="stop-color:#000000"
   id="stop3125" />
	<stop
   offset="0.0029"
   style="stop-color:#020202"
   id="stop3127" />
	<stop
   offset="0.0846"
   style="stop-color:#373737"
   id="stop3129" />
	<stop
   offset="0.1693"
   style="stop-color:#656565"
   id="stop3131" />
	<stop
   offset="0.2595"
   style="stop-color:#8F8F8F"
   id="stop3133" />
	<stop
   offset="0.3536"
   style="stop-color:#B1B1B1"
   id="stop3135" />
	<stop
   offset="0.4527"
   style="stop-color:#CECECE"
   id="stop3137" />
	<stop
   offset="0.5587"
   style="stop-color:#E4E4E4"
   id="stop3139" />
	<stop
   offset="0.6747"
   style="stop-color:#F3F3F3"
   id="stop3141" />
	<stop
   offset="0.8083"
   style="stop-color:#FCFCFC"
   id="stop3143" />
	<stop
   offset="1"
   style="stop-color:#FFFFFF"
   id="stop3145" />
</linearGradient>
<polyline
   points="79.541,126.604 76.399,83.532 70.767,126.926 "
   id="polyline3147"
   clip-path="url(#clipPath3243)"
   style="fill:url(#SVGID_1_)"
   transform="translate(-28.896002,-45.477466)" />
<linearGradient
   id="SVGID_2_"
   gradientUnits="userSpaceOnUse"
   x1="140.64011"
   y1="106.2256"
   x2="150.5659"
   y2="104.2433">
	<stop
   offset="0"
   style="stop-color:#000000"
   id="stop3150" />
	<stop
   offset="0.0303"
   style="stop-color:#0A0A0A"
   id="stop3152" />
	<stop
   offset="0.309"
   style="stop-color:#606060"
   id="stop3154" />
	<stop
   offset="0.5549"
   style="stop-color:#A4A4A4"
   id="stop3156" />
	<stop
   offset="0.7589"
   style="stop-color:#D5D5D5"
   id="stop3158" />
	<stop
   offset="0.9132"
   style="stop-color:#F4F4F4"
   id="stop3160" />
	<stop
   offset="1"
   style="stop-color:#FFFFFF"
   id="stop3162" />
</linearGradient>
<polyline
   points="148.119,128.375 148.607,77.07 157.562,130.411 "
   id="polyline3164"
   clip-path="url(#clipPath3239)"
   style="fill:url(#SVGID_2_)"
   transform="translate(-28.896002,-45.477466)" />
<linearGradient
   id="SVGID_3_"
   gradientUnits="userSpaceOnUse"
   x1="112.5679"
   y1="136.5117"
   x2="112.5679"
   y2="47.778198">
	<stop
   offset="0"
   style="stop-color:#EE6D6D"
   id="stop3167" />
	<stop
   offset="0.1459"
   style="stop-color:#F27B6F"
   id="stop3169" />
	<stop
   offset="0.4804"
   style="stop-color:#F99773"
   id="stop3171" />
	<stop
   offset="0.7761"
   style="stop-color:#FDA775"
   id="stop3173" />
	<stop
   offset="1"
   style="stop-color:#FFAD76"
   id="stop3175" />
</linearGradient>
<path
   d="m 150.794,47.499 -17.075,0.005 -0.01,14.396 -13.213,-0.008 0.002,-14.409 -15.583,-0.006 0.005,14.397 H 91.698 l 0.002,-14.393 -17.157,0.004 2.793,14.32 -3.072,71.206 c 0,0 8.945,4.158 39.215,4.243 30.27,0.085 37.39,-4.025 37.39,-4.025 L 148,62.008 150.794,47.499 z"
   id="path3177"
   clip-path="url(#clipPath3235)"
   inkscape:connector-curvature="0"
   style="fill:url(#SVGID_3_)"
   transform="translate(-28.896002,-45.477466)" />
<path
   d="M 138.209,83.526 87.453,83.501 c -0.041,14.165 11.288,25.6 25.294,25.639 14.008,0.04 25.422,-11.449 25.462,-25.614 z"
   id="path3179"
   clip-path="url(#clipPath3231)"
   inkscape:connector-curvature="0"
   style="fill:#ffffff"
   transform="translate(-28.896002,-45.477466)" />
<path
   d="m 112.913,109.376 c 6.803,0 13.209,-2.795 18.044,-7.661 4.853,-4.882 7.469,-11.275 7.489,-18.183 l -0.237,-10e-4 c -0.02,6.845 -2.612,13.179 -7.42,18.017 -4.791,4.82 -11.136,7.591 -17.876,7.591 h -0.163 c -6.74,0 -13.085,-2.771 -17.876,-7.591 -4.808,-4.837 -7.4,-11.172 -7.419,-18.017 l -0.237,10e-4 c 0.02,6.907 2.637,13.301 7.489,18.183 4.835,4.865 11.242,7.661 18.044,7.661 h 0.162 z"
   id="path3181"
   clip-path="url(#clipPath3227)"
   inkscape:connector-curvature="0"
   style="opacity:0.2"
   transform="translate(-28.896002,-45.477466)" />
<circle
   cx="112.826"
   cy="95.439003"
   r="10.297"
   id="circle3183"
   clip-path="url(#clipPath3223)"
   sodipodi:cx="112.826"
   sodipodi:cy="95.439003"
   sodipodi:rx="10.297"
   sodipodi:ry="10.297"
   style="fill:#383838"
   transform="translate(-28.896002,-45.477466)" />
<path
   d="m 103.927,143.02 c 0,-8.724 7.071,-15.795 15.795,-15.795 8.724,0 15.795,7.071 15.795,15.795 h -31.59 z m 23.177,2.467 c 0,-8.724 7.07,-15.796 15.795,-15.796 8.725,0 15.796,7.073 15.796,15.796 h -31.591 z m 20.184,-12.822 c 0,-8.724 7.071,-15.796 15.795,-15.796 v 31.591 c -8.724,0 -15.795,-7.071 -15.795,-15.795 z m -82.192,5.177 c 0,-8.723 7.07,-15.795 15.795,-15.795 8.724,0 15.795,7.072 15.795,15.795 h -31.59 z m 15.532,5.178 c 0,-8.724 7.071,-15.795 15.795,-15.795 8.724,0 15.795,7.071 15.795,15.795 h -31.59 z"
   id="path3185"
   clip-path="url(#clipPath3219)"
   inkscape:connector-curvature="0"
   style="fill:#ffffff"
   transform="translate(-28.896002,-45.477466)" />

<g
   transform="matrix(1.5422887,0,0,1.5422887,3.7467102,26.281581)"
   id="g7102"
   style="fill:#383838;fill-opacity:1"><g
     id="g7104"
     style="fill:#383838;fill-opacity:1"><g
       id="g7106"
       style="fill:#383838;fill-opacity:1"><path
         style="fill:#383838;fill-opacity:1"
         inkscape:connector-curvature="0"
         d="M 11.8,75.432 H 11.746 C 10.46,73.744 9.147,73.181 7.378,73.181 3.412,73.181 1,76.584 1,80.417 c 0,3.832 2.6,7.289 6.432,7.289 1.769,0 3.376,-0.67 4.476,-2.305 h 0.053 v 1.93 h 3.698 V 67.178 H 11.8 v 8.254 z m -3.297,9.165 c -2.278,0 -3.484,-1.902 -3.484,-4.073 0,-2.09 1.153,-4.073 3.377,-4.073 2.412,0 3.537,1.956 3.537,4.02 10e-4,2.303 -1.232,4.126 -3.43,4.126 z M 23.246,73.181 c -4.154,0 -7.048,2.841 -7.048,7.29 0,4.395 2.894,7.235 7.048,7.235 3.243,0 5.762,-1.474 6.7,-4.288 l -3.752,-0.295 c -0.536,1.072 -1.581,1.635 -2.76,1.635 -2.063,0 -3.055,-1.608 -3.216,-3.216 H 30.294 V 80.47 c 0,-4.449 -2.895,-7.289 -7.048,-7.289 z m -3.028,5.896 c 0.214,-1.555 1.206,-2.948 3.216,-2.948 1.849,0 2.867,1.608 3.001,2.948 H 20.218 z M 35.924,69.59 h -3.859 v 3.966 h -1.769 v 2.948 h 1.769 V 83.9 c 0,2.974 1.528,3.59 4.047,3.59 0.616,0 1.233,-0.08 1.849,-0.16 v -3.028 c -0.241,0.053 -0.456,0.08 -0.777,0.08 -0.991,0 -1.259,-0.294 -1.259,-0.911 v -6.967 h 2.037 V 73.556 H 35.925 V 69.59 z m 9.381,3.591 c -4.154,0 -7.048,2.841 -7.048,7.29 0,4.395 2.895,7.235 7.048,7.235 3.243,0 5.762,-1.474 6.7,-4.288 l -3.752,-0.295 c -0.536,1.072 -1.581,1.635 -2.76,1.635 -2.063,0 -3.055,-1.608 -3.216,-3.216 H 52.353 V 80.47 c 0,-4.449 -2.894,-7.289 -7.048,-7.289 z m -3.028,5.896 c 0.214,-1.555 1.206,-2.948 3.216,-2.948 1.849,0 2.867,1.608 3.001,2.948 H 42.277 z M 59.698,76.45 c 1.019,0 2.145,0.456 2.225,2.385 l 4.02,-0.161 C 65.755,75.753 63.799,73.18 59.699,73.18 55.519,73.18 53,76.155 53,80.576 c 0,4.234 2.278,7.128 6.78,7.128 3.698,0 5.521,-2.197 6.109,-5.226 l -3.778,-0.134 c -0.214,1.34 -0.965,2.251 -2.438,2.251 -2.01,0 -2.653,-2.037 -2.653,-3.859 -0.001,-1.767 0.293,-4.286 2.678,-4.286 z m 12.116,-6.86 h -3.859 v 3.966 h -1.769 v 2.948 h 1.769 V 83.9 c 0,2.974 1.528,3.59 4.047,3.59 0.616,0 1.232,-0.08 1.85,-0.16 v -3.028 c -0.241,0.053 -0.456,0.08 -0.777,0.08 -0.992,0 -1.26,-0.294 -1.26,-0.911 v -6.967 h 2.037 V 73.556 H 71.815 V 69.59 z m 3.003,17.741 h 3.858 V 73.556 h -3.858 v 13.775 z m 1.93,-20.314 c -1.287,0 -2.252,1.152 -2.252,2.278 0,1.072 0.965,2.224 2.252,2.224 1.232,0 2.251,-1.099 2.251,-2.278 0,-1.232 -1.099,-2.224 -2.251,-2.224 z m 4.905,4.743 v 1.796 h -1.956 v 2.948 h 1.956 V 87.331 H 85.51 V 76.504 h 2.225 V 73.556 H 85.51 v -2.144 c 0,-0.777 0.482,-1.125 1.152,-1.125 h 1.072 v -3.27 h -0.75 c -3.402,0 -5.332,0.884 -5.332,4.743 z m 16.536,1.796 -2.921,9.111 h -0.054 l -2.921,-9.111 h -4.234 l 5.172,13.774 -2.305,6.003 h 4.047 l 7.45,-19.777 h -4.234 z"
         id="path7108" /></g></g></g></svg>