<?xml version="1.0"?>
<svg xmlns="http://www.w3.org/2000/svg" xmlns:xlink="http://www.w3.org/1999/xlink" version="1.1" id="Capa_1" x="0px" y="0px" width="512px" height="512px" viewBox="0 0 44.775 44.775" style="enable-background:new 0 0 44.775 44.775;" xml:space="preserve" class=""><g><g>
	<g>
		<path d="M39.777,2.388H5c-2.761,0-5,2.238-5,5s2.239,5,5,5h34.775c2.762,0,5-2.238,5-5S42.538,2.388,39.777,2.388z" data-original="#000000" class="active-path" data-old_color="#f65a65" fill="#f65a65"/>
		<path d="M27.777,17.388H5c-2.761,0-5,2.238-5,5c0,2.762,2.239,5,5,5h22.775c2.762,0,5-2.238,5-5    C32.775,19.625,30.538,17.388,27.777,17.388z" data-original="#000000" class="active-path" data-old_color="#f65a65" fill="#f65a65"/>
		<path d="M14.777,32.388H5c-2.761,0-5,2.238-5,5s2.239,5,5,5h9.776c2.761,0,5-2.238,5-5S17.538,32.388,14.777,32.388z" data-original="#000000" class="active-path" data-old_color="#f65a65" fill="#f65a65"/>
	</g>
</g></g> </svg>
